# xmcd
#
# Track frame offsets: 
#        150
#        21355
#        41372
#        62785
#        85882
#        106095
#        128750
#        149937
#
# Disc length: 2304 seconds
#
# Revision: 2
# Processed by: cddbd v1.5.2PL0 Copyright (c) Steve Scherf et al.
# Submitted via: ExactAudioCopy v1.0b3
#
DISCID=6d08fe08
DTITLE=Hi-Five - Faithful
DYEAR=1993
DGENRE=R&B
TTITLE0=Never Should've Let You Go
TTITLE1=Miss U Girl
TTITLE2=I'm In Need
TTITLE3=Faithful
TTITLE4=What Can I Say To You (To Justify My Love)
TTITLE5=Ready 4 U 2 Love
TTITLE6=As One
TTITLE7=Unconditional Love
EXTD=
EXTT0=
EXTT1=
EXTT2=
EXTT3=
EXTT4=
EXTT5=
EXTT6=
EXTT7=
PLAYORDER=
